# xmcd
# Copyright (C) 1995-1998 Ti Kan
#
# Track frame offsets:
#       150
#       16078
#       35965
#       67776
#
# Disc length: 1159 seconds
#
# Revision: 0
# Processed by: cddbd v1.5.2PL0 Copyright (c) Steve Scherf et al.
# Submitted via: CD-Transfer v1.0
#
DISCID=29048504
DTITLE=Guess What - High Heels (Single)
DYEAR=06
DGENRE=
TTITLE0=High Heels (4 Dirty Girls)
TTITLE1=High Heels (4 Dirty Girls)
TTITLE2=Burning Alive
TTITLE3=Data Track
EXTD=
EXTT0=
EXTT1=
EXTT2=
EXTT3=
PLAYORDER=
